<?xml version="1.0" encoding="UTF-8" standalone="no"?>
<svg width="398px" height="795px" viewBox="0 0 398 795" version="1.1" xmlns="http://www.w3.org/2000/svg" xmlns:xlink="http://www.w3.org/1999/xlink" xmlns:sketch="http://www.bohemiancoding.com/sketch/ns">
    <!-- Generator: Sketch 3.3 (11970) - http://www.bohemiancoding.com/sketch -->
    <title>b</title>
    <desc>Created with Sketch.</desc>
    <defs></defs>
    <g id="Page-1" stroke="none" stroke-width="1" fill="none" fill-rule="evenodd" sketch:type="MSPage">
        <g id="1024" sketch:type="MSArtboardGroup" transform="translate(-300.000000, -115.000000)" fill="#FFFFFF">
            <path d="M591.5,830.5 C598.677119,830.5 604.749975,828.01565 609.71875,823.046875 C614.687525,818.630186 617.447914,813.109408 618,806.484375 L618,749.34375 C617.447914,742.718717 614.687525,737.197939 609.71875,732.78125 C604.749975,727.260389 598.677119,724.5 591.5,724.5 L406,724.5 C398.270795,724.5 391.9219,727.260389 386.953125,732.78125 C381.98435,737.197939 379.5,742.718717 379.5,749.34375 L379.5,806.484375 C379.5,813.109408 381.98435,818.630186 386.953125,823.046875 C391.9219,828.01565 398.270795,830.5 406,830.5 L591.5,830.5 Z M485.5,565.5 L484.671875,565.5 C477.494756,565.5 471.4219,563.01565 466.453125,558.046875 C461.48435,553.0781 459,546.729205 459,539 L459,406.5 C459,399.322881 461.48435,393.250025 466.453125,388.28125 C471.4219,383.312475 477.770795,380.828125 485.5,380.828125 L485.5,380 L512,380 L512,380.828125 C519.177119,380.828125 525.249975,383.312475 530.21875,388.28125 C535.739611,393.250025 538.5,399.322881 538.5,406.5 L538.5,539 C538.5,546.729205 535.739611,553.0781 530.21875,558.046875 C525.249975,563.01565 519.177119,565.5 512,565.5 L512,565.5 L485.5,565.5 Z M326.5,910 L325.671875,910 C318.494756,910 312.4219,907.51565 307.453125,902.546875 C302.48435,897.5781 300,891.229205 300,883.5 L300,141.5 C300,134.322881 302.48435,128.250025 307.453125,123.28125 C312.4219,118.312475 318.770795,115.828125 326.5,115.828125 L326.5,115 L353,115 L353,115.828125 C360.177119,115.828125 366.249975,118.312475 371.21875,123.28125 C376.739611,128.250025 379.5,134.322881 379.5,141.5 L379.5,620.984375 C379.5,627.609408 381.98435,633.130186 386.953125,637.546875 C391.9219,642.51565 398.270795,645 406,645 L671,645 L671,645.828125 C678.177119,645.828125 684.249975,648.312475 689.21875,653.28125 C694.739611,658.250025 697.5,664.322881 697.5,671.5 L697.5,883.5 C697.5,891.229205 694.739611,897.5781 689.21875,902.546875 C684.249975,907.51565 678.177119,910 671,910 L671,910 L326.5,910 Z M485.5,300.5 L484.671875,300.5 C477.494756,300.5 471.4219,298.01565 466.453125,293.046875 C461.48435,288.0781 459,281.729205 459,274 L459,141.5 C459,134.322881 461.48435,128.250025 466.453125,123.28125 C471.4219,118.312475 477.770795,115.828125 485.5,115.828125 L485.5,115 L512,115 L512,115.828125 C519.177119,115.828125 525.249975,118.312475 530.21875,123.28125 C535.739611,128.250025 538.5,134.322881 538.5,141.5 L538.5,274 C538.5,281.729205 535.739611,288.0781 530.21875,293.046875 C525.249975,298.01565 519.177119,300.5 512,300.5 L512,300.5 L485.5,300.5 Z M644.5,565.5 L643.671875,565.5 C636.494756,565.5 630.4219,563.01565 625.453125,558.046875 C620.48435,553.0781 618,546.729205 618,539 L618,141.5 C618,134.322881 620.48435,128.250025 625.453125,123.28125 C630.4219,118.312475 636.770795,115.828125 644.5,115.828125 L644.5,115 L671,115 L671,115.828125 C678.177119,115.828125 684.249975,118.312475 689.21875,123.28125 C694.739611,128.250025 697.5,134.322881 697.5,141.5 L697.5,539 C697.5,546.729205 694.739611,553.0781 689.21875,558.046875 C684.249975,563.01565 678.177119,565.5 671,565.5 L644.5,565.5 Z" id="b" sketch:type="MSShapeGroup"></path>
        </g>
    </g>
</svg>